<?xml version="1.0" encoding="UTF-8" standalone="no"?> <svg width="64" height="64" viewBox="0 0 64 64" fill="#f7b801" xmlns="http://www.w3.org/2000/svg" color="">
<path d="M60 5.5H4C3.73478 5.5 3.48043 5.60536 3.29289 5.79289C3.10536 5.98043 3 6.23478 3 6.5V20.25C3 21.9076 3.65848 23.4973 4.83058 24.6694C6.00268 25.8415 7.5924 26.5 9.25 26.5H54.75C56.4076 26.5 57.9973 25.8415 59.1694 24.6694C60.3415 23.4973 61 21.9076 61 20.25V6.5C61 6.23478 60.8946 5.98043 60.7071 5.79289C60.5196 5.60536 60.2652 5.5 60 5.5ZM59 20.25C58.9974 21.3764 58.5487 22.4558 57.7523 23.2523C56.9558 24.0487 55.8764 24.4974 54.75 24.5H9.25C8.12364 24.4974 7.04417 24.0487 6.24771 23.2523C5.45126 22.4558 5.00264 21.3764 5 20.25V7.5H59V20.25Z" fill="#f7b801"/>
<path d="M10 22.5H54C54.2652 22.5 54.5196 22.3946 54.7071 22.2071C54.8946 22.0196 55 21.7652 55 21.5C55 21.2348 54.8946 20.9804 54.7071 20.7929C54.5196 20.6054 54.2652 20.5 54 20.5H10C9.73478 20.5 9.48043 20.6054 9.29289 20.7929C9.10536 20.9804 9 21.2348 9 21.5C9 21.7652 9.10536 22.0196 9.29289 22.2071C9.48043 22.3946 9.73478 22.5 10 22.5V22.5Z" fill="#f7b801"/>
<path d="M10 18.5H54C54.2652 18.5 54.5196 18.3946 54.7071 18.2071C54.8946 18.0196 55 17.7652 55 17.5C55 17.2348 54.8946 16.9804 54.7071 16.7929C54.5196 16.6054 54.2652 16.5 54 16.5H10C9.73478 16.5 9.48043 16.6054 9.29289 16.7929C9.10536 16.9804 9 17.2348 9 17.5C9 17.7652 9.10536 18.0196 9.29289 18.2071C9.48043 18.3946 9.73478 18.5 10 18.5V18.5Z" fill="#f7b801"/>
<path d="M51 14.5H57C57.2652 14.5 57.5196 14.3946 57.7071 14.2071C57.8946 14.0196 58 13.7652 58 13.5V10.5C58 10.2348 57.8946 9.98043 57.7071 9.79289C57.5196 9.60536 57.2652 9.5 57 9.5H51C50.7348 9.5 50.4804 9.60536 50.2929 9.79289C50.1054 9.98043 50 10.2348 50 10.5V13.5C50 13.7652 50.1054 14.0196 50.2929 14.2071C50.4804 14.3946 50.7348 14.5 51 14.5ZM52 11.5H56V12.5H52V11.5Z" fill="#f7b801"/>
<path d="M20.5 34C20.5 33.7348 20.3946 33.4804 20.2071 33.2929C20.0196 33.1054 19.7652 33 19.5 33H17.41L18.89 31.52C18.9947 31.4304 19.0797 31.32 19.1397 31.196C19.1997 31.0719 19.2335 30.9368 19.2388 30.7991C19.2441 30.6613 19.2209 30.524 19.1706 30.3957C19.1204 30.2674 19.0441 30.1508 18.9466 30.0534C18.8492 29.9559 18.7326 29.8796 18.6043 29.8294C18.476 29.7791 18.3387 29.7559 18.2009 29.7612C18.0632 29.7665 17.9281 29.8003 17.804 29.8603C17.68 29.9203 17.5696 30.0053 17.48 30.11L16 31.59V29.5C16 29.2348 15.8946 28.9804 15.7071 28.7929C15.5196 28.6054 15.2652 28.5 15 28.5C14.7348 28.5 14.4804 28.6054 14.2929 28.7929C14.1054 28.9804 14 29.2348 14 29.5V31.59L12.52 30.11C12.4304 30.0053 12.32 29.9203 12.196 29.8603C12.0719 29.8003 11.9368 29.7665 11.7991 29.7612C11.6613 29.7559 11.524 29.7791 11.3957 29.8294C11.2674 29.8796 11.1508 29.9559 11.0533 30.0534C10.9559 30.1508 10.8796 30.2674 10.8294 30.3957C10.7791 30.524 10.7559 30.6613 10.7612 30.7991C10.7665 30.9368 10.8003 31.0719 10.8603 31.196C10.9203 31.32 11.0053 31.4304 11.11 31.52L12.59 33H10.5C10.2348 33 9.98043 33.1054 9.79289 33.2929C9.60536 33.4804 9.5 33.7348 9.5 34C9.5 34.2652 9.60536 34.5196 9.79289 34.7071C9.98043 34.8946 10.2348 35 10.5 35H12.59L11.11 36.48C10.9237 36.6674 10.8192 36.9208 10.8192 37.185C10.8192 37.4492 10.9237 37.7026 11.11 37.89C11.2034 37.9827 11.3143 38.056 11.4361 38.1058C11.5579 38.1555 11.6884 38.1808 11.82 38.18C12.0823 38.1789 12.3337 38.0747 12.52 37.89L14 36.41V38.5C14 38.7652 14.1054 39.0196 14.2929 39.2071C14.4804 39.3946 14.7348 39.5 15 39.5C15.2652 39.5 15.5196 39.3946 15.7071 39.2071C15.8946 39.0196 16 38.7652 16 38.5V36.41L17.48 37.89C17.6663 38.0747 17.9177 38.1789 18.18 38.18C18.3116 38.1808 18.4421 38.1555 18.5639 38.1058C18.6857 38.056 18.7966 37.9827 18.89 37.89C19.0763 37.7026 19.1808 37.4492 19.1808 37.185C19.1808 36.9208 19.0763 36.6674 18.89 36.48L17.41 35H19.5C19.7652 35 20.0196 34.8946 20.2071 34.7071C20.3946 34.5196 20.5 34.2652 20.5 34Z" fill="#f7b801"/>
<path d="M37 48.5H31.41L35.36 44.5C35.4657 44.31 35.5066 44.0908 35.4765 43.8755C35.4464 43.6602 35.3469 43.4605 35.1932 43.3068C35.0395 43.1531 34.8398 43.0536 34.6245 43.0235C34.4092 42.9934 34.19 43.0343 34 43.14L30 47.14V41.5C30 41.2348 29.8946 40.9804 29.7071 40.7929C29.5196 40.6054 29.2652 40.5 29 40.5C28.7348 40.5 28.4804 40.6054 28.2929 40.7929C28.1054 40.9804 28 41.2348 28 41.5V47.09L24.05 43.09C23.9604 42.9853 23.85 42.9003 23.726 42.8403C23.6019 42.7803 23.4668 42.7465 23.3291 42.7412C23.1913 42.7359 23.054 42.7591 22.9257 42.8094C22.7974 42.8596 22.6808 42.9359 22.5833 43.0333C22.4859 43.1308 22.4096 43.2474 22.3594 43.3757C22.3091 43.504 22.2859 43.6413 22.2912 43.7791C22.2965 43.9168 22.3303 44.0519 22.3903 44.176C22.4503 44.3 22.5353 44.4104 22.64 44.5L26.59 48.5H21C20.7348 48.5 20.4804 48.6054 20.2929 48.7929C20.1054 48.9804 20 49.2348 20 49.5C20 49.7652 20.1054 50.0196 20.2929 50.2071C20.4804 50.3946 20.7348 50.5 21 50.5H26.59L22.64 54.5C22.4537 54.6874 22.3492 54.9408 22.3492 55.205C22.3492 55.4692 22.4537 55.7226 22.64 55.91C22.8246 56.0984 23.0762 56.2062 23.34 56.21C23.4723 56.2094 23.6032 56.1826 23.7251 56.1312C23.8469 56.0797 23.9574 56.0045 24.05 55.91L28 51.91V57.5C28 57.7652 28.1054 58.0196 28.2929 58.2071C28.4804 58.3946 28.7348 58.5 29 58.5C29.2652 58.5 29.5196 58.3946 29.7071 58.2071C29.8946 58.0196 30 57.7652 30 57.5V51.91L34 55.91C34.0926 56.0045 34.2031 56.0797 34.3249 56.1312C34.4468 56.1826 34.5777 56.2094 34.71 56.21C34.9738 56.2062 35.2254 56.0984 35.41 55.91C35.5963 55.7226 35.7008 55.4692 35.7008 55.205C35.7008 54.9408 35.5963 54.6874 35.41 54.5L31.46 50.5H37C37.2652 50.5 37.5196 50.3946 37.7071 50.2071C37.8946 50.0196 38 49.7652 38 49.5C38 49.2348 37.8946 48.9804 37.7071 48.7929C37.5196 48.6054 37.2652 48.5 37 48.5Z" fill="#f7b801"/>
<path d="M52 35.5H48.41L51 33C51.1047 32.9104 51.1897 32.8 51.2497 32.676C51.3097 32.5519 51.3435 32.4168 51.3488 32.2791C51.3541 32.1413 51.3309 32.004 51.2806 31.8757C51.2304 31.7474 51.1541 31.6308 51.0567 31.5333C50.9592 31.4359 50.8426 31.3596 50.7143 31.3094C50.586 31.2591 50.4487 31.2359 50.3109 31.2412C50.1732 31.2465 50.0381 31.2803 49.914 31.3403C49.79 31.4003 49.6796 31.4853 49.59 31.59L47 34.09V30.5C47 30.2348 46.8946 29.9804 46.7071 29.7929C46.5196 29.6054 46.2652 29.5 46 29.5C45.7348 29.5 45.4804 29.6054 45.2929 29.7929C45.1054 29.9804 45 30.2348 45 30.5V34.09L42.46 31.55C42.3648 31.4574 42.2523 31.3845 42.1289 31.3354C42.0055 31.2863 41.8736 31.262 41.7409 31.2638C41.6081 31.2657 41.4769 31.2937 41.355 31.3462C41.233 31.3988 41.1226 31.4748 41.03 31.57C40.9374 31.6652 40.8645 31.7777 40.8154 31.9011C40.7663 32.0245 40.742 32.1564 40.7438 32.2891C40.7457 32.4219 40.7737 32.5531 40.8262 32.675C40.8787 32.797 40.9548 32.9074 41.05 33L43.59 35.54H40C39.7348 35.54 39.4804 35.6454 39.2929 35.8329C39.1054 36.0204 39 36.2748 39 36.54C39 36.8052 39.1054 37.0596 39.2929 37.2471C39.4804 37.4346 39.7348 37.54 40 37.54H43.59L41.05 40C40.8637 40.1874 40.7592 40.4408 40.7592 40.705C40.7592 40.9692 40.8637 41.2226 41.05 41.41C41.1434 41.5027 41.2543 41.576 41.3761 41.6258C41.4979 41.6755 41.6284 41.7008 41.76 41.7C42.0223 41.6989 42.2737 41.5947 42.46 41.41L45 38.91V42.5C45 42.7652 45.1054 43.0196 45.2929 43.2071C45.4804 43.3946 45.7348 43.5 46 43.5C46.2652 43.5 46.5196 43.3946 46.7071 43.2071C46.8946 43.0196 47 42.7652 47 42.5V38.91L49.54 41.45C49.7263 41.6347 49.9777 41.7389 50.24 41.74C50.3716 41.7408 50.5021 41.7155 50.6239 41.6658C50.7457 41.616 50.8566 41.5427 50.95 41.45C51.0516 41.36 51.1339 41.2503 51.1917 41.1275C51.2496 41.0047 51.2818 40.8714 51.2865 40.7357C51.2912 40.6001 51.2682 40.4649 51.2189 40.3384C51.1697 40.2119 51.0952 40.0968 51 40L48.41 37.5H52C52.2652 37.5 52.5196 37.3946 52.7071 37.2071C52.8946 37.0196 53 36.7652 53 36.5C53 36.2348 52.8946 35.9804 52.7071 35.7929C52.5196 35.6054 52.2652 35.5 52 35.5Z" fill="#f7b801"/>
</svg>
