<?xml version="1.0" encoding="UTF-8"?>
<!DOCTYPE svg PUBLIC "-//W3C//DTD SVG 1.1//EN" "http://www.w3.org/Graphics/SVG/1.1/DTD/svg11.dtd">
<!-- Creator: CorelDRAW -->
<svg xmlns="http://www.w3.org/2000/svg" xml:space="preserve" width="512px" height="512px" version="1.1" style="shape-rendering:geometricPrecision; text-rendering:geometricPrecision; image-rendering:optimizeQuality; fill-rule:evenodd; clip-rule:evenodd"
viewBox="0 0 512 512"
 xmlns:xlink="http://www.w3.org/1999/xlink">
 <defs>
  <style type="text/css">
   <![CDATA[
    .fil0 {fill:"#f7b801"}
   ]]>
  </style>
 </defs>
 <g id="Layer_x0020_1">
  <metadata id="CorelCorpID_0Corel-Layer"/>
  <g id="_302808176">
   <path fill="#f7b801"  d="M383 508l-254 0c1,-2 1,-5 1,-7l0 -130 252 0 0 130c0,2 0,5 1,7z"/>
   <g>
    <path fill="#f7b801" d="M109 508l-102 0c-4,0 -7,-3 -7,-7l0 -188c0,-4 3,-7 7,-7l102 0c4,0 7,3 7,7l0 188c0,4 -3,7 -7,7zm-51 -28c-21,0 -39,-17 -39,-38 0,-21 18,-39 39,-39 22,0 39,17 39,39 0,21 -17,38 -39,38zm0 -63c-14,0 -25,11 -25,25 0,13 12,24 25,24 14,0 25,-10 25,-24 0,-14 -11,-25 -25,-25zm0 18c4,0 7,3 7,7 0,3 -3,7 -7,7 -4,0 -7,-4 -7,-7 0,-4 3,-7 7,-7zm0 -46c-15,0 -27,-12 -27,-27 0,-15 12,-27 27,-27 15,0 27,12 27,27 0,15 -12,27 -27,27zm0 -40c-7,0 -13,6 -13,13 0,7 6,13 13,13 7,0 13,-6 13,-13 0,-7 -6,-13 -13,-13zm0 6c4,0 7,3 7,7 0,4 -3,7 -7,7 -4,0 -7,-3 -7,-7 0,-4 3,-7 7,-7z"/>
    <path fill="#f7b801" d="M505 508l-102 0c-4,0 -7,-3 -7,-7l0 -188c0,-4 3,-7 7,-7l102 0c4,0 7,3 7,7l0 188c0,4 -3,7 -7,7zm-51 -28c-22,0 -39,-17 -39,-38 0,-22 17,-39 39,-39 21,0 39,18 39,39 0,21 -18,38 -39,38zm0 -63c-14,0 -25,11 -25,25 0,14 11,24 25,24 13,0 25,-11 25,-24 0,-14 -11,-25 -25,-25zm0 18c4,0 7,3 7,7 0,3 -3,7 -7,7 -4,0 -7,-4 -7,-7 0,-4 3,-7 7,-7zm0 -46c-15,0 -27,-12 -27,-27 0,-15 12,-27 27,-27 15,0 27,12 27,27 0,15 -12,27 -27,27zm0 -40c-7,0 -13,6 -13,13 0,7 6,13 13,13 7,0 13,-6 13,-13 0,-7 -6,-13 -13,-13zm0 6c4,0 7,3 7,7 0,4 -3,7 -7,7 -4,0 -7,-3 -7,-7 0,-4 3,-7 7,-7z"/>
   </g>
   <path fill="#f7b801" d="M149 357l5 -18c1,-3 4,-5 7,-5l190 0c3,0 6,2 7,5l5 18 -214 0z"/>
   <path fill="#f7b801" d="M173 320l0 -6c0,-10 8,-19 18,-19 10,0 18,9 18,19l0 6 -36 0z"/>
   <path fill="#f7b801" d="M303 320l0 -6c0,-10 8,-19 18,-19 10,0 18,9 18,19l0 6 -36 0z"/>
   <path fill="#f7b801" d="M328 268c-23,0 -41,-15 -41,-34 0,-10 6,-19 16,-25 9,-6 19,-8 29,-6l0 -117c0,-4 3,-7 7,-7 4,0 7,3 7,7 0,13 12,19 31,27 12,5 24,10 32,19 11,11 14,24 10,42 -7,28 -17,35 -25,36 -6,1 -12,-3 -15,-10 -2,-3 -1,-6 1,-8 1,-1 7,-10 -4,-22 0,0 0,0 0,0 -3,-3 -5,-5 -7,-7l0 71c0,19 -18,34 -41,34z"/>
   <path fill="#f7b801" d="M141 193c-22,0 -41,-16 -41,-34 0,-10 6,-19 16,-25 9,-6 19,-8 29,-6l0 -117c0,-4 3,-7 7,-7 4,0 7,3 7,7 0,13 12,19 31,27 12,5 24,10 32,19 11,11 14,24 10,42 -7,28 -17,35 -25,36 -6,1 -12,-3 -15,-10 -2,-3 -1,-6 1,-8 1,-1 7,-10 -4,-22 0,0 0,0 0,0 -3,-3 -5,-5 -7,-7l0 71c0,19 -18,34 -41,34z"/>
  </g>
 </g>
</svg>
