<?xml version="1.0" encoding="UTF-8" standalone="no"?> 
<svg xmlns="http://www.w3.org/2000/svg" viewBox="0 0 48 48" fill="#f7b801">
<g id="Mop">
<path d="M45,23h-.051a10.994,10.994,0,0,0-21.9,0H23a1,1,0,0,0,0,2H23.1l.6,6H21V29a2,2,0,0,0-2-2V6a3,3,0,0,0-6,0V27a2,2,0,0,0-2,2v2H7a2,2,0,0,0-2,2v2.788L2.128,42.3A2,2,0,0,0,4,45H40.19a2.991,2.991,0,0,0,2.985-2.7L44.905,25H45a1,1,0,0,0,0-2ZM34,15a9.01,9.01,0,0,1,8.941,8H25.059A9.01,9.01,0,0,1,34,15ZM25.6,43.005,24.436,37h.912L28,43ZM11.194,37l-.4,6.038-2.371.005L9.6,37Zm2,0H15v6.029l-2.2,0ZM17,37h1.8l.393,6.019-2.2.005Zm3.806,0H22.4l1.167,6.01-2.367.005ZM15,6a1,1,0,0,1,2,0V27H15ZM13,29h6v2H13ZM7,33H25v2H7ZM3.979,43.053,6.652,37h.912L6.39,43.047ZM41.185,42.1a1,1,0,0,1-1,.9H29.979a2.148,2.148,0,0,0-.129-.756L27,35.788V33a2,2,0,0,0-1.282-1.861L25.105,25H42.9Z"/><path d="M2.521,21.878l.911.5a2.991,2.991,0,0,1,1.192,1.194l.5.911a1,1,0,0,0,1.754,0l.5-.912a2.986,2.986,0,0,1,1.192-1.192l.911-.5a1,1,0,0,0,0-1.756l-.911-.5a2.991,2.991,0,0,1-1.192-1.194l-.5-.911a1.04,1.04,0,0,0-1.754,0l-.5.911h0a2.986,2.986,0,0,1-1.192,1.192l-.911.5a1,1,0,0,0,0,1.756ZM6,19.981A4.966,4.966,0,0,0,7.018,21,4.941,4.941,0,0,0,6,22.019,4.966,4.966,0,0,0,4.982,21,4.941,4.941,0,0,0,6,19.981Z"/><path d="M36.521,8.878l.911.5a2.991,2.991,0,0,1,1.192,1.194l.5.911a1,1,0,0,0,1.754,0l.5-.912a2.986,2.986,0,0,1,1.192-1.192l.911-.5a1,1,0,0,0,0-1.756l-.911-.5a2.991,2.991,0,0,1-1.192-1.194l-.5-.911a1.04,1.04,0,0,0-1.754,0l-.5.911h0a2.986,2.986,0,0,1-1.192,1.192l-.911.5a1,1,0,0,0,0,1.756ZM40,6.981A4.966,4.966,0,0,0,41.018,8,4.941,4.941,0,0,0,40,9.019,4.966,4.966,0,0,0,38.982,8,4.941,4.941,0,0,0,40,6.981Z"/><path d="M23,11h1v1a1,1,0,0,0,2,0V11h1a1,1,0,0,0,0-2H26V8a1,1,0,0,0-2,0V9H23a1,1,0,0,0,0,2Z"/><path d="M4,10H5v1a1,1,0,0,0,2,0V10H8A1,1,0,0,0,8,8H7V7A1,1,0,0,0,5,7V8H4a1,1,0,0,0,0,2Z" fill="#f7b801"/></g></svg>
