<svg version="1.1" id="Layer_1" xmlns="http://www.w3.org/2000/svg" xmlns:xlink="http://www.w3.org/1999/xlink" x="0px" y="0px" viewBox="0 0 242.2888 200.5642" enable-background="new 0 0 242.2888 200.5642" xml:space="preserve">
<g>
<path d="M136.4971,108.3071l1.8959,3.1246l4.809-2.9181c-1.6737-0.4067-3.3204-0.8327-4.9273-1.2852L136.4971,108.3071z" id="id_101" style="fill: rgb(0, 0, 0);"></path>
<path d="M210.9928,43.7587c-10.5621,6.4091-15.0898,18.3445-10.3776,26.9776L165.3337,92.145l-3.7888,1.2219
		c0.3475,0.3663,0.6783,0.7516,0.9734,1.1727c0.3218,0.4588,0.5923,0.9418,0.8317,1.4366l2.6948-2.6595l35.2814-21.4088
		c5.4816,8.1658,18.1591,9.6617,28.7212,3.2526c10.8069-6.5576,15.3021-18.9034,10.0403-27.5748
		C234.8259,38.9143,221.7997,37.201,210.9928,43.7587z M229.0993,73.5981c-9.9282,6.0244-21.8539,4.5829-26.5846-3.2131
		c-4.7307-7.7961-0.5023-19.0399,9.4259-25.0643c9.9282-6.0244,21.8542-4.5831,26.5848,3.213
		C243.2561,56.3299,239.0275,67.5737,229.0993,73.5981z" id="id_102" style="fill: rgb(0, 0, 0);"></path>
<path d="M52.7433,131.1611c-0.038-0.026-0.0729-0.0549-0.1107-0.0811l4.5086,25.489l-43.7109,20.668
		c-6.1162,2.8916-8.7305,10.1943-5.8379,16.3105c2.0918,4.4248,6.4922,7.0166,11.082,7.0166c1.7549,0,3.5371-0.3789,5.2285-1.1787
		l52.167-24.666c4.9922-2.3604,7.7881-7.7695,6.8262-13.208l-3.8607-21.824l-20.3693-5.4429
		C56.4855,133.6626,54.4943,132.6255,52.7433,131.1611z" id="id_103" style="fill: rgb(255, 196, 0);"></path>
<ellipse transform="matrix(0.6308 -0.7759 0.7759 0.6308 21.7348 90.6885)" cx="106.1691" cy="22.5039" rx="22.5" ry="22.5" id="id_104" style="stroke: rgb(240, 187, 14); fill: #f7b801"></ellipse>
<path d="M94.5965,140.7404l15.2004,4.0618l25.1221,48.127c2.2305,4.2729,6.584,6.7188,11.0918,6.7183
		c1.9482,0,3.9268-0.457,5.7734-1.4214c6.1201-3.1943,8.4912-10.7456,5.2969-16.8652l-27.666-53
		c-1.6211-3.1055-4.4697-5.3877-7.8545-6.292l-17.2075-4.5981L94.5965,140.7404z" id="id_105" style="fill: rgb(255, 196, 0);"></path>
<path d="M75.1814,66.1051c-3.1514-4.6582-1.9258-11.0122,2.7314-14.1641c1.6963-1.146,3.6709-1.752,5.71-1.752
		c3.3809,0,6.5342,1.6655,8.4355,4.4551c0.0569,0.0817,2.0244,2.8376,6.0359,6.8245c0.4672-6.8954-2.001-13.4926-7.498-15.9662
		c-2.356-1.0608-5.1421-1.6008-8.0923-1.5c-10.3936-0.3328-45.1968,1.2188-79.8984,32.9014
		c-3.2627,2.979-3.4922,8.0391-0.5137,11.3018c1.5781,1.7285,3.7402,2.606,5.9102,2.606c1.9258,0,3.8574-0.6914,5.3926-2.0923
		C30.045,73.5176,46.485,66.2817,59.2975,62.8769c-8.2358,15.9932-11.4692,28.2996-12.7397,48.5186
		c0.1216,9.1736,3.4819,14.3367,8.001,17.3718c1.375,1.1758,3.0171,2.0806,4.8818,2.5789l31.2556,8.352l9.7567-23.2696
		l-18.1866-4.8597c1.6946-9.9648,5.225-20.0447,8.6705-28.9576C80.6528,74.0071,75.6186,66.7511,75.1814,66.1051z" id="id_106" style="fill: rgb(255, 196, 0);"></path>
<path d="M155.5506,92.5157C110.6199,84.6222,90.5643,56.3492,90.24,55.8829c-2.4814-3.6411-7.4424-4.5879-11.0938-2.1196
		c-3.6592,2.4761-4.6182,7.4497-2.1426,11.1089c0.9434,1.3945,23.7041,34.2534,75.7793,43.4023
		c0.4678,0.082,0.9336,0.1221,1.3936,0.1221c3.8105,0,7.1875-2.7339,7.8691-6.6172
		C162.8103,97.4278,159.9031,93.2804,155.5506,92.5157z" id="id_107" style="fill: rgb(255, 196, 0);"></path>
</g>
</svg>
