<svg width="512" height="512" viewBox="0 0 512 512" fill="none" xmlns="http://www.w3.org/2000/svg">
<path d="M482.218 425.828L482.231 425.812L481.637 425.325C481.471 425.186 481.303 425.05 481.136 424.914L383.174 344.645C404.377 320.066 416.029 288.678 416.001 256.217V254.553C415.999 244.277 414.833 234.034 412.523 224.021L391.796 134.201C391.397 132.473 390.435 130.926 389.061 129.804C387.687 128.682 385.98 128.048 384.207 128.002C382.433 127.957 380.695 128.502 379.266 129.552C377.836 130.601 376.796 132.097 376.308 133.802L372.741 146.289C367.295 165.305 358.516 183.202 346.811 199.148L346.908 198.279C350.937 162.017 344.034 125.379 327.086 93.0692C310.137 60.7595 283.918 34.2538 251.794 16.9561C250.297 16.1503 248.583 15.8421 246.899 16.0763C245.216 16.3104 243.651 17.0746 242.431 18.2582C241.211 19.4418 240.399 20.9831 240.114 22.6588C239.829 24.3344 240.085 26.0573 240.846 27.5776C244.14 34.167 244.682 41.7951 242.352 48.784C240.023 55.7729 235.012 61.5501 228.423 64.8447C217.394 70.392 207.8 78.4184 200.393 88.2945C192.986 98.1707 187.967 109.628 185.729 121.769L180.885 148.419L167.354 116.849C166.761 115.465 165.79 114.277 164.553 113.421C163.315 112.565 161.861 112.075 160.357 112.008C158.853 111.941 157.361 112.299 156.052 113.042C154.743 113.785 153.67 114.882 152.957 116.207L112.23 191.842C99.2129 216 93.8304 243.539 96.7938 270.821C99.7572 298.103 110.927 323.845 128.828 344.645L30.8662 424.914C30.6982 425.05 30.5305 425.186 30.3645 425.325L29.7703 425.812L29.7837 425.828C25.5654 429.488 22.1607 433.99 19.7888 439.046C17.417 444.102 16.1307 449.598 16.0128 455.181C15.895 460.764 16.9482 466.31 19.1046 471.461C21.261 476.613 24.4727 481.255 28.5328 485.089C32.5929 488.923 37.4113 491.864 42.6774 493.722C47.9435 495.58 53.5405 496.315 59.1078 495.878C64.675 495.441 70.0889 493.842 75.0005 491.185C79.9122 488.528 84.2127 484.871 87.6247 480.45L87.6287 480.454L176.663 380.297C181.26 382.347 185.969 384.139 190.767 385.663L152.897 430.862L152.909 430.872C149.338 435.288 146.748 440.414 145.312 445.908C143.877 451.403 143.628 457.14 144.583 462.739C145.537 468.337 147.674 473.667 150.849 478.376C154.025 483.084 158.167 487.061 163.001 490.043C167.834 493.026 173.246 494.944 178.879 495.671C184.511 496.398 190.234 495.917 195.666 494.259C201.098 492.602 206.114 489.807 210.381 486.059C214.648 482.311 218.068 477.698 220.413 472.526L220.43 472.534L256.001 395.153L291.571 472.534L291.589 472.526C293.932 477.701 297.351 482.318 301.618 486.068C305.885 489.818 310.903 492.616 316.336 494.276C321.769 495.935 327.494 496.417 333.128 495.691C338.763 494.964 344.178 493.046 349.013 490.062C353.847 487.079 357.991 483.1 361.167 478.39C364.343 473.679 366.48 468.346 367.433 462.746C368.387 457.146 368.136 451.406 366.698 445.91C365.26 440.414 362.667 435.288 359.092 430.872L359.104 430.862L321.235 385.663C326.033 384.139 330.741 382.347 335.339 380.296L424.373 480.454L424.377 480.45C427.789 484.872 432.089 488.529 437.001 491.187C441.913 493.844 447.327 495.444 452.895 495.881C458.462 496.318 464.06 495.584 469.326 493.726C474.593 491.868 479.411 488.927 483.472 485.092C487.532 481.258 490.744 476.615 492.901 471.464C495.057 466.312 496.11 460.766 495.992 455.182C495.874 449.599 494.587 444.102 492.214 439.046C489.842 433.99 486.437 429.488 482.218 425.828V425.828ZM168.001 224C168.001 222.25 168.574 220.549 169.634 219.157C170.693 217.764 172.179 216.757 173.866 216.29C175.552 215.823 177.344 215.922 178.969 216.571C180.594 217.22 181.961 218.384 182.861 219.884L188.454 229.205C195.384 240.767 204.298 251.016 214.786 259.483L210.034 248.079C202.026 228.86 200.43 207.571 205.483 187.373C210.536 167.175 221.968 149.145 238.082 135.96L274.935 105.808C276.173 104.796 277.686 104.177 279.278 104.033C280.87 103.889 282.47 104.225 283.869 104.998C285.269 105.771 286.405 106.946 287.13 108.371C287.856 109.796 288.137 111.406 287.939 112.992L284.634 139.428C281.98 160.715 284.559 182.329 292.149 202.395L296.081 174.869C296.326 173.15 297.124 171.558 298.354 170.333C299.584 169.107 301.179 168.315 302.899 168.076C304.618 167.837 306.369 168.164 307.887 169.007C309.404 169.85 310.606 171.165 311.311 172.751L336.486 229.394C342.386 242.669 344.875 257.208 343.728 271.69C342.581 286.172 337.834 300.138 329.918 312.319C322.002 324.5 311.168 334.51 298.4 341.44C285.632 348.37 271.335 352 256.807 352H255.194C232.077 351.974 209.914 342.779 193.568 326.432C177.222 310.086 168.027 287.923 168.001 264.806V224ZM95.1719 447.885C93.6254 440.499 90.0274 433.698 84.791 428.265C79.5545 422.831 72.8918 418.984 65.5679 417.165L139.993 356.181C146.766 362.406 154.15 367.931 162.032 372.672L95.1719 447.885ZM231.784 392H239.841L219.173 436.963C215.913 430.951 211.169 425.874 205.393 422.216C199.616 418.557 192.998 416.438 186.171 416.061L208.069 389.924C215.898 391.307 223.834 392.002 231.784 392V392ZM325.831 416.061C319.003 416.438 312.386 418.557 306.609 422.216C300.832 425.874 296.088 430.951 292.829 436.963L272.16 392H280.218C288.168 392.002 296.103 391.307 303.932 389.924L325.831 416.061ZM372.008 356.181L446.434 417.165C439.11 418.983 432.447 422.83 427.211 428.264C421.974 433.698 418.376 440.499 416.83 447.885L349.969 372.672C357.852 367.931 365.236 362.406 372.008 356.181V356.181Z" fill="#ffc400" id="id_101"></path>
<path d="M224.481 45.3647L212.61 34.6367C210.293 37.1998 207.515 39.3057 204.422 40.8452L211.578 55.1558C216.453 52.7269 220.83 49.4059 224.481 45.3647V45.3647Z" fill="#ffc400" id="id_102"></path>
<path d="M200.438 62.2598L190.478 49.7383C178.843 58.9873 170.036 71.3132 165.055 85.3164L180.127 90.6826C184.107 79.4956 191.144 69.6486 200.438 62.2598Z" fill="#ffc400" id="id_103"></path>
<path d="M424.562 340.5C431.706 330.004 437.337 318.554 441.289 306.488L426.082 301.512C422.598 312.151 417.632 322.247 411.332 331.501L424.562 340.5Z" fill="#ffc400" id="id_104"></path>
<path d="M447.753 272.479L431.782 271.52C431.479 276.554 430.861 281.564 429.93 286.52L445.654 289.478C446.709 283.861 447.41 278.183 447.753 272.479V272.479Z" fill="#ffc400" id="id_105"></path>
<path d="M255.193 336H256.807C268.668 335.999 280.342 333.036 290.767 327.377C301.192 321.719 310.038 313.546 316.502 303.6C322.965 293.654 326.841 282.251 327.778 270.426C328.714 258.602 326.682 246.73 321.864 235.891L307.986 204.666L303.92 233.131C303.673 234.859 302.868 236.458 301.627 237.686C300.387 238.913 298.779 239.701 297.049 239.93C295.319 240.159 293.561 239.816 292.044 238.953C290.527 238.09 289.334 236.755 288.646 235.151L279.559 213.947C269.241 189.854 265.513 163.451 268.757 137.443L269.58 130.861L248.213 148.343C234.763 159.348 225.221 174.397 221.004 191.256C216.787 208.114 218.119 225.883 224.803 241.925L239.385 276.923C240.012 278.429 240.164 280.092 239.82 281.687C239.476 283.283 238.652 284.734 237.459 285.848C236.265 286.962 234.76 287.684 233.145 287.917C231.53 288.151 229.882 287.885 228.422 287.155C211.113 278.511 195.94 266.129 184 250.906V264.806C184.021 283.681 191.529 301.777 204.876 315.124C218.222 328.47 236.318 335.978 255.193 336V336Z" fill="#ffc400" id="id_106"></path>
</svg>