<svg xmlns="http://www.w3.org/2000/svg" width="504.711" height="512.002" viewBox="0 0 504.711 512.002">
<g id="Layer_x0020_1" transform="translate(-97.645 -93.999)">
<g id="_522951632">
<path  id="_256881256" d="M131.339,94H568.66a33.794,33.794,0,0,1,33.7,33.7V572.3a33.791,33.791,0,0,1-33.7,33.7H131.339a33.779,33.779,0,0,1-33.695-33.7V127.7A33.779,33.779,0,0,1,131.339,94Zm38.25,43.732H530.411a28.847,28.847,0,0,1,28.851,28.852V533.417a28.83,28.83,0,0,1-28.851,28.852H169.589l-.738-.009h-.009l-.716-.027h-.038l-.673-.044-.034,0h0l-.035,0-.65-.058-.039,0h0l-.058-.007a28.91,28.91,0,0,1-25.768-26.484v-.014c-.018-.239-.034-.478-.046-.718v-.009c-.013-.234-.02-.468-.026-.7v-.039l-.009-.728V166.583a28.84,28.84,0,0,1,28.851-28.852Z" fill="#f7b801"></path>
<path id="_256888360" d="M169.589,137.731H530.411a28.946,28.946,0,0,1,28.851,28.852V533.417a28.935,28.935,0,0,1-28.851,28.852H169.589a28.933,28.933,0,0,1-28.851-28.852V166.583a28.935,28.935,0,0,1,28.851-28.852Z" fill="#198754"></path>
<path id="_256887736" d="M515.428,137.731h14.984a28.946,28.946,0,0,1,28.851,28.852v24.808a34.7,34.7,0,0,1-43.834-53.66Z" fill="#f7b801"></path>
<path id="_256887688" d="M559.262,512.512v20.906a28.935,28.935,0,0,1-28.851,28.852H511.071a34.7,34.7,0,0,1,48.191-49.758Z" fill="#f7b801"></path>
<path id="_256887952" d="M184.575,562.269H169.589a28.933,28.933,0,0,1-28.851-28.852V508.611a34.7,34.7,0,0,1,43.837,53.658Z" fill="#f7b801"></path>
<path id="_256888144" d="M399.078,309.408a6,6,0,0,0-8.485-8.485l-89.669,89.669a6,6,0,1,0,8.485,8.485Z" fill="#f7b801"></path>
<path id="_256887976" d="M390.6,399.081a6,6,0,0,0,8.485-8.485l-89.677-89.677a6,6,0,0,0-8.485,8.485Z" fill="#f7b801"></path>
<g id="Group_12" data-name="Group 12">
<path id="_256887664" d="M169.589,137.731h19.343a34.7,34.7,0,0,1-48.194,49.756v-20.9a28.935,28.935,0,0,1,28.851-28.852Z" fill="#f7b801"></path>
<path id="_522952232" d="M192.409,154.906a34.706,34.706,0,0,1-51.671,30.269v2.311a34.7,34.7,0,0,0,48.194-49.756h-1.067A34.532,34.532,0,0,1,192.409,154.906Z" fill="#f7b801" fill-rule="evenodd"></path>
</g>
<g id="Group_13" data-name="Group 13">
<path id="_522952280" d="M530.411,562.269H511.068a34.7,34.7,0,0,1,48.194-49.756v20.9a28.935,28.935,0,0,1-28.851,28.852Z" fill="#f7b801"></path>
<path id="_522951608" d="M507.591,545.094a34.706,34.706,0,0,1,51.671-30.269v-2.311a34.7,34.7,0,0,0-48.194,49.756h1.067a34.532,34.532,0,0,1-4.544-17.176Z" fill="#f7b801" fill-rule="evenodd"></path>
</g>
<path id="_522952064" d="M543.219,194.127a34.7,34.7,0,0,1-27.077-56.4h-.715a34.7,34.7,0,0,0,43.834,53.66V190.2a34.533,34.533,0,0,1-16.043,3.926Z" fill="#f7b801" fill-rule="evenodd"></path>
<path id="_522951728" d="M156.157,507.435a34.7,34.7,0,0,1,28.26,54.834h.157a34.7,34.7,0,0,0-43.837-53.658v2.432a34.542,34.542,0,0,1,15.419-3.608Z" fill="#f7b801" fill-rule="evenodd"></path>
<path id="_522951824" d="M350,280.59a69.408,69.408,0,1,1-49.081,20.329A69.2,69.2,0,0,1,350,280.59ZM390.6,309.4A57.414,57.414,0,1,0,407.411,350,57.236,57.236,0,0,0,390.6,309.4Z" fill="#f7b801"></path>
</g>
</g>
</svg>
