<svg xmlns="http://www.w3.org/2000/svg" viewBox="0 0 64 64"><g id="Layer_26" data-name="Layer 26"><path d="M29.72,31.88,9.4,20.15c-.74-.42-1.35-.08-1.35.77L8,44.27a3,3,0,0,0,1.34,2.32L29.64,58.32c.75.43,1.35.08,1.35-.77l.07-23.35A3,3,0,0,0,29.72,31.88ZM12.54,45.46a4.8,4.8,0,0,1-2.18-3.76c0-1.39,1-1.94,2.19-1.25a4.81,4.81,0,0,1,2.17,3.76C14.72,45.59,13.74,46.15,12.54,45.46Zm0-15.47a4.77,4.77,0,0,1-2.17-3.76c0-1.38,1-1.94,2.18-1.25a4.76,4.76,0,0,1,2.17,3.76C14.76,30.13,13.78,30.69,12.58,30Zm6.93,12a4.8,4.8,0,0,1-2.17-3.76c0-1.38,1-1.94,2.19-1.25a4.81,4.81,0,0,1,2.17,3.76C21.69,42.1,20.72,42.66,19.51,42Zm6.93,11.53a4.81,4.81,0,0,1-2.17-3.76c0-1.39,1-1.94,2.19-1.25a4.81,4.81,0,0,1,2.17,3.76C28.63,53.62,27.65,54.18,26.44,53.49Zm0-15.47a4.75,4.75,0,0,1-2.17-3.76c0-1.38,1-1.94,2.18-1.25a4.76,4.76,0,0,1,2.17,3.76C28.67,38.16,27.69,38.72,26.49,38Z"/><path d="M56,44.26,56,20.92c0-.85-.61-1.2-1.35-.77L34.28,31.88a3,3,0,0,0-1.34,2.32L33,57.55c0,.85.6,1.19,1.35.77L54.68,46.59A3,3,0,0,0,56,44.26ZM37.5,33c1.2-.69,2.18-.13,2.18,1.25A4.77,4.77,0,0,1,37.51,38c-1.2.7-2.18.14-2.19-1.25A4.8,4.8,0,0,1,37.5,33Zm0,8c1.2-.69,2.18-.13,2.19,1.25A4.84,4.84,0,0,1,37.53,46c-1.2.69-2.18.13-2.18-1.25A4.8,4.8,0,0,1,37.52,41Zm0,12.52c-1.21.7-2.19.14-2.19-1.24a4.77,4.77,0,0,1,2.17-3.76c1.2-.69,2.18-.14,2.19,1.24A4.78,4.78,0,0,1,37.56,53.48ZM44.45,29c1.2-.7,2.18-.14,2.19,1.24A4.83,4.83,0,0,1,44.47,34c-1.21.69-2.19.13-2.19-1.25A4.77,4.77,0,0,1,44.45,29Zm0,8c1.2-.69,2.19-.13,2.19,1.24A4.8,4.8,0,0,1,44.49,42c-1.21.7-2.19.14-2.19-1.25A4.8,4.8,0,0,1,44.47,37Zm0,12.52c-1.2.69-2.19.14-2.19-1.24a4.8,4.8,0,0,1,2.18-3.77c1.2-.69,2.18-.14,2.18,1.25A4.77,4.77,0,0,1,44.51,49.47ZM51.4,25c1.21-.69,2.19-.13,2.19,1.25A4.77,4.77,0,0,1,51.42,30c-1.2.7-2.19.14-2.19-1.25A4.81,4.81,0,0,1,51.4,25Zm0,8c1.21-.7,2.19-.14,2.19,1.24A4.8,4.8,0,0,1,51.44,38c-1.2.69-2.18.13-2.19-1.25A4.8,4.8,0,0,1,51.42,32.94Zm0,12.52c-1.2.69-2.18.13-2.19-1.25a4.81,4.81,0,0,1,2.18-3.76c1.2-.69,2.18-.14,2.19,1.24A4.83,4.83,0,0,1,51.46,45.46Z"/><path d="M10.33,16.82a.83.83,0,0,0,0,1.56L30.65,30.11a3,3,0,0,0,2.69,0L53.52,18.38a.83.83,0,0,0,0-1.56L33.19,5.09a3,3,0,0,0-2.67,0Zm10.13,1.91a4.81,4.81,0,0,1-4.34,0,1.33,1.33,0,0,1,0-2.52,4.81,4.81,0,0,1,4.34,0A1.33,1.33,0,0,1,20.46,18.73Zm22.93-2.26a4.81,4.81,0,0,1,4.34,0,1.33,1.33,0,0,1,0,2.52,4.8,4.8,0,0,1-4.35,0A1.33,1.33,0,0,1,43.39,16.47Zm-9,10.29a4.81,4.81,0,0,1-4.34,0,1.33,1.33,0,0,1,0-2.52,4.81,4.81,0,0,1,4.34,0A1.33,1.33,0,0,1,34.37,26.76ZM33.82,8.44a1.33,1.33,0,0,1,0,2.52,4.8,4.8,0,0,1-4.35,0,1.33,1.33,0,0,1,0-2.52A4.81,4.81,0,0,1,33.82,8.44Z"/></g></svg>