<?xml version="1.0" encoding="utf-8"?>
<!-- Generator: Adobe Illustrator 25.3.1, SVG Export Plug-In . SVG Version: 6.00 Build 0)  -->
<svg version="1.1" id="Layer_1" xmlns="http://www.w3.org/2000/svg" xmlns:xlink="http://www.w3.org/1999/xlink" x="0px" y="0px"
	 viewBox="0 0 111.9808 263.8763" enable-background="new 0 0 111.9808 263.8763" xml:space="preserve">
<g>
	<path fill="#f7b801" d="M84.7835,31.1009c1.5181-2.7632,4.4456-4.5639,7.7039-4.5639c0.7568,0,1.5156,0.0991,2.2529,0.2939
		c2.2725,0.6001,4.1758,2.0493,5.3584,4.0806c0.4174,0.717,0.7214,1.4776,0.9216,2.2599
		c6.4097-2.4921,10.9604-8.7062,10.9604-15.9971C111.9808,7.6891,104.2916,0,94.8065,0S77.6321,7.6891,77.6321,17.1743
		C77.6321,22.9139,80.4583,27.9823,84.7835,31.1009z"/>
	<path fill="#f7b801" d="M6.408,262.373c1.1816,0.4556,2.3975,0.6714,3.5928,0.6714c4.0156-0.0005,7.8037-2.4365,9.333-6.4082l18.9404-49.165
		c0.5928-1.5381,0.7959-3.1992,0.5918-4.835l-0.7971-6.3757l-23.2893-25.0668l3.9292,31.4313L0.6717,249.4467
		C-1.3146,254.6,1.2537,260.3876,6.408,262.373z"/>
	<path fill="#f7b801" d="M13.0333,148.5311c-5.3545,9.1357-3.1455,15.4824,1.9697,19.5239l30.9473,33.3086l9.708,54.272
		c0.8662,4.8413,5.0801,8.2412,9.832,8.2407c0.584,0,1.1777-0.0513,1.7725-0.1577c5.4365-0.9727,9.0557-6.168,8.083-11.6045
		l-10.2256-57.165c-0.3379-1.8887-1.2119-3.6401-2.5176-5.0459l-18.7695-20.2017c0.0059-7.8262-0.873-24.7495,8.7041-48.4121
		c9.9082,1.2603,11.374-9.5425,8.9424-15.0894c-0.2771-0.6312-1.2871-1.5203-2.7136-2.5359l-15.8196,6.7273
		c-1.0977,0.4668-2.2559,0.7031-3.4414,0.7031c-3.5371,0-6.7168-2.103-8.1006-5.3579c-0.9209-2.1626-0.9434-4.5542-0.0645-6.7344
		c0.8799-2.1802,2.5547-3.8872,4.7178-4.8071l17.5688-7.4712l25.2941-34.4464l5.0061-18.959
		c-1.6262-1.0994-3.0699-2.4445-4.297-3.9711L58.0628,58.7181c-0.397,9.3717-6.3448,18.0374-15.6997,21.4116
		c-0.01,0.0036-0.0203,0.0064-0.0303,0.01l-2.3645,3.2202c-5.9426,0.1591-11.7952,3.8474-15.1714,12.0848
		C19.5801,108.1688,32.1505,115.913,13.0333,148.5311z"/>
	<path fill="#f7b801" d="M81.8272,91.3578c1.8477-0.7856,3.2285-2.3809,3.7402-4.3223l13.2109-50.0371c0.917-3.4707-1.1543-7.0273-4.625-7.9438
		c-3.4756-0.918-7.0283,1.1548-7.9434,4.6255L73.8106,80.64L36.9581,96.3119c-3.3037,1.4048-4.8428,5.2217-3.4375,8.5249
		c1.0518,2.4736,3.4561,3.958,5.9844,3.958c0.8486,0,1.7109-0.167,2.541-0.52L81.8272,91.3578z"/>
	<path fill="#f7b801" d="M17.6133,102.9934c4.5481-10.8504-7.4175-26.175-3.897-33.2933c-0.7075-1.2184-1.3218-2.512-1.8164-3.8835
		c-0.4109-1.1393-0.7278-2.2899-0.9575-3.4434C4.491,66.6075-1.6723,74.2974,4.824,90.078
		c6.3843,15.5087,2.0616,20.0247-2.2466,21.4649C-1.7309,112.9831,11.712,117.0721,17.6133,102.9934z"/>
	<ellipse fill="#f7b801" transform="matrix(0.9299 -0.3677 0.3677 0.9299 -18.8301 16.6535)" cx="34.288" cy="57.7418" rx="21.5001" ry="21.5"/>
</g>
</svg>
