<?xml version="1.0" encoding="utf-8"?>
<!-- Generator: Adobe Illustrator 23.0.2, SVG Export Plug-In . SVG Version: 6.00 Build 0)  -->
<svg version="1.1" id="Layer_1" xmlns="http://www.w3.org/2000/svg" xmlns:xlink="http://www.w3.org/1999/xlink" x="0px" y="0px"
	 viewBox="0 0 644.33 422.1768" enable-background="new 0 0 644.33 422.1768" xml:space="preserve">
<g>
	<path d="M211.7739,122.9601c0.0129,0.0544,0.025,0.109,0.0378,0.1635c0.0219-0.0464,0.0414-0.094,0.0635-0.1402
		C211.8418,122.9755,211.8073,122.968,211.7739,122.9601z"/>
	<path d="M297.4673,240.4042l-44.6816-32.9803c-2.8896-2.1323-6.958-1.519-9.0898,1.3691c-2.1318,2.8887-1.5186,6.958,1.3691,9.0898
		l45.1265,33.3086l14.0444,41.3806c0.9785,2.9902,7.0156,13.6504,10.3188,13.8311c1.1089,0.7007,2.3735,1.1948,3.7505,1.4163
		l36.7744,5.9146l17.6514,23.0293c1.9688,2.5693,4.9395,3.9175,7.9434,3.9175c2.123,0,4.2617-0.6729,6.0762-2.0635
		c4.3838-3.3599,5.2139-9.6367,1.8535-14.02l-20.0713-26.1875c-1.5537-2.0283-3.8262-3.3843-6.3486-3.79l-8.1748-1.3147
		l11.8369-4.449l38.6055,15.793c1.2393,0.5073,2.5215,0.7476,3.7822,0.7471c3.9404,0,7.6758-2.3442,9.2598-6.2163
		c2.0908-5.1113-0.3574-10.9507-5.4697-13.0415l-42.2373-17.2788c-2.334-0.9551-4.9443-0.9922-7.3047-0.1055l-16.1064,6.0537
		l-12.1147-35.6953l38.3589-38.4165c2.5361-2.5405,2.5332-6.6558-0.0068-9.1924s-6.6563-2.5347-9.1924,0.0068l-40.5068,40.568
		L297.4673,240.4042z"/>
	<path d="M285.9976,217.3983c3.521,10.7604,15.0981,16.6293,25.8584,13.1084c10.7607-3.5208,16.6294-15.098,13.1089-25.8585
		c-3.521-10.7604-15.0981-16.6293-25.8589-13.1085C288.3457,195.0604,282.4766,206.6378,285.9976,217.3983z M322.2015,213.9552
		c-1.0852,4.8902-4.5861,9.1315-9.6544,10.8942s-10.4454,0.6093-14.331-2.5521L322.2015,213.9552z"/>
	<path d="M452.2838,409.8491c0-3.6667-3-6.6667-6.6667-6.6667h-9.5939l-43.6135-61.6511c-0.6147,0.6624-1.278,1.2872-2.0099,1.8481
		c-2.8174,2.1597-6.1807,3.3013-9.7256,3.3013c-5.0225,0-9.6533-2.2847-12.7061-6.2681L351.77,319.2789l-34.418-5.5356
		c-1.8018-0.2896-3.5146-0.8735-5.1035-1.7393c-7.8086-2.6362-13.6621-17.4053-13.7148-17.5659l-13.4199-39.5366L241.5015,222.71
		c-5.5449-4.0933-6.7256-11.9346-2.6328-17.48c2.3467-3.1792,6.1074-5.0771,10.0615-5.0771c2.6865,0,5.252,0.8447,7.418,2.4434
		l24.4639,18.0572c-0.1789-0.4592-0.3619-0.9163-0.5167-1.3892c-2.2021-6.7275-1.6514-13.9097,1.5488-20.2231
		c1.2968-2.5585,2.9713-4.8444,4.9457-6.8118l-10.1729-14.3801h-1.1333v-8.2667h-3.2001V132.916
		c0-5.858-1.3741-11.3991-3.8082-16.327l-1.7602,1.0136c-0.2928,0.1686-4.235,2.3925-11.1938,4.3942
		c1.7609,3.2505,2.7622,6.97,2.7622,10.9193v36.6664h-45.3336h-6v-36.6663c0-20.4023-16.5977-37-37-37h-2.666
		c-20.4023,0-37,16.5977-37,37v33.8178v2.8485h-16.1337v11.3333h17.5565L0,417.3096l8.7354,4.8672l8.6576-15.5391h69.9163
		l-5.9045,10.5977l8.7354,4.8672L193.1345,237.244l117.3888,165.9384h-0.2394c-3.6667,0-6.6667,3-6.6667,6.6667
		s3,6.6667,6.6667,6.6667h135.3333C449.2838,416.5158,452.2838,413.5158,452.2838,409.8491z M144.2841,166.7339v-33.8178
		c0-12.6826,10.3174-23,23-23h2.666c12.6826,0,23,10.3174,23,23v36.6663h-6h-42.666V166.7339z M153.2866,180.9158l6.8171,9.6365
		h-22.3185l5.369-9.6365H153.2866z M80.3749,293.5947l23.1337-41.5215h69.9165l-23.1337,41.5215H80.3749z M144.7199,303.5947
		l-23.1338,41.5215H51.6697l23.1337-41.5215H144.7199z M22.9645,396.6377l23.1337-41.5215h69.9164l-23.1338,41.5215H22.9645z
		 M178.9967,242.0732h-69.9166l23.1335-41.521h34.9642l19.5529,27.6396L178.9967,242.0732z M168.7866,180.9158h13l157.2367,222.2667
		h-13L168.7866,180.9158z"/>
	<path d="M517.5885,297.6238c-10.4435-11.4319-23.6418-10.7643-30.6279-5.4155c-5.2611,4.0267-5.8223,12.0668-2.9642,19.2051
		l4.3383-7.9658c1.2095-2.2224,3.1865-3.9158,5.5655-4.769c2.7642-0.9913,5.8289-0.754,8.407,0.6494
		c4.9873,2.7172,6.8345,8.985,4.1186,13.9728l-9.6082,17.6414c3.3188,4.9476,6.6755,10.2758,9.5941,15.8073l-5.0934-1.002
		l-11.3484-2.2324l-1.16,2.1298c-1.2098,2.2214-3.1868,3.9149-5.5685,4.769c-0.2546,0.0913-0.5148,0.1732-0.7822,0.2463
		l-19.6544,5.3273c0.2177,0.863,0.5284,1.7103,0.9399,2.5254l26,51.5c2.1553,4.2686,6.4688,6.7314,10.9453,6.7314
		c1.8564,0.0005,3.7407-0.4233,5.5112-1.3169c6.0391-3.0493,8.4634-10.417,5.4146-16.4565l-14.7017-29.1206l9.2081,1.8115
		l11.9437,2.3497c1.6876,0.3327,3.3612,0.2977,4.942-0.0433c2.1109-0.0798,4.5351-0.9694,7.4861-2.2047
		c8.4547-3.5373,17.9222-9.4423,14.389-25.46C538.4202,324.8928,531.8555,313.427,517.5885,297.6238z"/>
	<path d="M458.1296,254.7919c-11.9945,3.2526-19.078,15.6117-15.8259,27.6042c3.2527,11.9946,15.6091,19.0798,27.6036,15.8271
		c11.9927-3.2521,19.0795-15.61,15.8268-27.6046C482.482,258.6261,470.1222,251.5397,458.1296,254.7919z M446.1983,282.069
		c10.5254,4.983,25.7892,0.0767,25.7892,0.0767C458.8431,301.6977,446.1983,282.069,446.1983,282.069z"/>
	<path d="M481.8571,348.4402c0.206-0.0563,0.4094-0.1199,0.6079-0.191c1.8403-0.66,3.3835-1.9749,4.325-3.7037l17.6155-32.3448
		c2.1138-3.8808,0.6808-8.7389-3.1987-10.8522c-3.882-2.1144-8.7397-0.6805-10.8521,3.1987l-15.9816,29.3448l-31.0737,8.4222
		c-4.2529,1.136-6.7847,5.5496-5.6289,9.814c1.1558,4.2645,5.5496,6.7847,9.8141,5.6288L481.8571,348.4402z"/>
	<path d="M242.7501,167.5975c4.4922,0,8.1329-3.6426,8.1329-8.1338v-36.2866v-2.0443c-4.5089,1.027-9.9662,1.8453-16.2657,2.0384
		v2.0009v34.2917C234.6173,163.9549,238.258,167.5975,242.7501,167.5975z"/>
	<path d="M220.8517,167.5975c4.4922,0,8.1348-3.6426,8.1348-8.1338v-34.2916v-2.0009c-6.3003-0.1931-11.7584-1.0115-16.2676-2.0386
		v2.0444v5.2795c0.1518,1.4664,0.2313,2.9539,0.2313,4.4597v28.4431C213.8057,164.9349,217.0151,167.5975,220.8517,167.5975z"/>
	<path d="M219.9238,71.7175c0.1816,0.0176,0.3633,0.0264,0.542,0.0264c2.7969,0,5.1895-2.124,5.4668-4.9658
		c0.2959-3.0229-1.916-5.7134-4.9385-6.0088l-5.6999-0.5567c-1.1835,0.745-2.3277,1.1906-3.3101,1.4484
		c-3.1481,0.8269-6.9377,0.2224-7.5726-2.1946c-0.3326-1.2661,0.3196-2.808,2.2105-3.3047l0.2284-0.0569
		c0.9341-0.2454,1.5585-0.7012,1.9658-1.4341c0.6069-1.0954,1.3126-3.9438-0.7893-10.7084
		c-0.1166-0.3755-0.2136-0.7368-0.314-1.1006c-5.4306,5.1889-11.0864,14.058-13.714,18.4175
		c-0.9756,1.6167-1.0527,3.6206-0.2051,5.3081c0.8477,1.687,2.501,2.8218,4.3799,3.0054L219.9238,71.7175z"/>
	<path d="M233.1562,46.8837c-4.5656-0.4705-8.6697-2.2958-11.9563-5.0338c0.8708,4.2222,1.331,8.6664-0.687,12.484
		c-0.8296,1.5697-1.7527,2.817-2.705,3.8132l3.4097,0.3331c2.0732,0.2026,3.9434,1.2007,5.2666,2.8101
		c1.3232,1.6099,1.9404,3.6382,1.7373,5.7114c-0.3916,4.0146-3.7266,7.042-7.7559,7.042c-0.252,0-0.5078-0.0122-0.7656-0.0371
		l-14.653-1.4316c-2.1214,9.5411-4.0876,20.0604-5.0483,29.6233c4.34,4.2463,7.7818,9.4011,10.0241,15.1542
		c5.4298,1.5126,12.7957,2.8668,21.7784,2.8668c20.351,0,32.4192-6.9493,32.4192-6.9493c0-20.2571-7.7574-50.5375-11.5758-64.2156
		l17.7381-7.6341c1.4023-0.603,2.4902-1.7617,3.0049-3.1982l8.5-23.75c1.0234-2.8604-0.4658-6.0083-3.3252-7.0317
		c-2.8604-1.0234-6.0078,0.4648-7.0322,3.3247l-7.6934,21.4976l-9.3425,4.0209C250.1544,43.3973,241.9828,47.7935,233.1562,46.8837z
		"/>
	<path d="M210.2238,43.2797c3.5457,11.4127,0.1907,14.3433-2.9585,15.0916s6.1317,4.5048,11.2148-5.1124
		c2.1954-4.1536,0.7988-9.6332-0.3344-14.4992c-2.8583-3.5167-4.6486-7.8981-4.9526-12.6132
		C209.7407,29.1755,207.4163,34.2433,210.2238,43.2797z"/>
	<path d="M233.3919,44.596c10.9875,1.1324,20.8126-6.8567,21.9451-17.8442s-6.8566-20.8126-17.8441-21.9451
		s-20.8126,6.8567-21.9451,17.8442S222.4044,43.4636,233.3919,44.596z M248.4604,29.6867c0,0-10.7365,17.5721-22.7366,0.6095
		C225.7239,30.2962,239.285,34.3014,248.4604,29.6867z"/>
	<path d="M583.9551,406.0332c-0.2056,5.5186,4.1016,10.1592,9.6206,10.3652c0.127,0.0049,0.2529,0.0068,0.3794,0.0068
		c5.3506,0,9.7852-4.2354,9.9863-9.6279l1.9683-52.816c-6.1699,1.1558-12.9088,2.0726-20.1093,2.5555L583.9551,406.0332z"/>
	<path d="M552.0054,352.2391c51.7362,7.6541,92.3245-13.7664,92.3245-13.7664s-5.813-22.2982-15.629-46.0242
		c-4.028-9.736-8.7302-19.7045-13.9829-28.4799c-0.3124-0.0966-0.6247-0.1882-0.9378-0.3036
		c-3.2236-1.1882-6.27-3.2551-9.0542-6.1434c-4.2878-4.4467-6.4895-9.7805-7.5026-15.004
		c-7.8171-6.1033-16.2996-8.0339-25.2036-2.9465c-5.4666,3.1234-8.3674,7.0691-9.6852,11.7389l13.864-3.7939
		c1.8731-0.5129,3.8129-0.4006,5.6114,0.3254c2.5727,1.0386,4.4677,3.1663,5.1998,5.8398c1.281,4.6791-1.4854,9.5284-6.1662,10.8108
		l-18.3262,5.015c1.4624,8.7601,3.9559,18.7811,4.7479,29.8078C568.402,315.1392,566.0243,333.0311,552.0054,352.2391z"/>
	<path d="M626.6448,258.9203c-5.3734,0.2563-12.0808-2.877-11.6785-22.7342c0.3687-18.1951-7.7849-24.7449-15.9369-27.2635
		c0.3732,3.1837,0.1381,6.4767-0.7868,9.7227c1.7025,0.5704,2.4207,2.3502,2.4207,2.3502s-6.8298,21.9158,5.7183,34.9296
		S632.0182,258.664,626.6448,258.9203z"/>
	<path d="M595.8875,218.5698c3.7134-11.8932-2.8896-24.5466-14.7458-28.2601c-11.854-3.7153-24.4775,2.9097-28.191,14.8054
		c-3.7114,11.8919,2.8897,24.5454,14.7458,28.259C579.5502,237.0912,592.1741,230.4625,595.8875,218.5698z M557.1508,211.2646
		c0,0,11.961,10.6767,23.6029,10.3921C580.7537,221.6567,561.2331,234.4678,557.1508,211.2646z"/>
	<path d="M584.7912,254.2885c-0.9483-3.4633-4.5251-5.5023-7.985-4.5546l-30.0269,8.2175l-26.7311-19.4132
		c-2.91-2.1099-6.9693-1.4644-9.0789,1.4395c-2.1099,2.9047-1.4647,6.9702,1.4395,9.0788l29.2567,21.2468
		c0.4331,0.3149,0.8992,0.5716,1.3865,0.7682c1.3058,0.5272,2.7631,0.6216,4.1484,0.2424l33.0363-9.0405
		C583.6998,261.3251,585.739,257.7504,584.7912,254.2885z"/>
	<path d="M455.2363,88.6657c0,0-14.7596-7.8111-17.4489,4.1381c5.8858-5.1489,15.4025-0.8863,18.8105,1.1365
		c2.0046-3.4206,8.2706-11.7535,15.913-10.0964C464.3762,74.6882,455.2363,88.6657,455.2363,88.6657z"/>
	<path d="M490.3945,103.7828c0,0-14.7618-7.8098-17.4489,4.1393c5.8857-5.1522,15.4014-0.8873,18.8105,1.1376
		c2.0034-3.4218,8.2706-11.7557,15.9118-10.0974C499.5342,89.8055,490.3945,103.7828,490.3945,103.7828z"/>
	<path d="M478.5709,67.4905c5.8868-5.1499,15.4014-0.8873,18.8105,1.1376c2.0024-3.4217,8.2683-11.7568,15.913-10.0963
		c-8.1346-9.1592-17.2746,4.8195-17.2746,4.8195S481.258,55.5415,478.5709,67.4905z"/>
	<path d="M393.6815,25.0997C393.6815,11.2384,382.443,0,368.5818,0c-13.8625,0-25.0997,11.2384-25.0997,25.0997
		c0,13.8636,11.2372,25.0997,25.0997,25.0997C382.443,50.1995,393.6815,38.9633,393.6815,25.0997z M348.2655,25.1046
		c0-11.2067,9.1109-20.3224,20.3163-20.3224c11.2005,0,20.3151,9.1158,20.3151,20.3224c0,11.2017-9.1146,20.3102-20.3151,20.3102
		C357.3764,45.4148,348.2655,36.3063,348.2655,25.1046z"/>
</g>
</svg>
