<svg id="Layer_1" data-name="Layer 1" xmlns="http://www.w3.org/2000/svg" viewBox="0 0 64 64"><defs><style>.cls-1{fill:#fd614b;}.cls-2{fill:#8ce2ff;}.cls-3{fill:#fecd0d;}</style></defs><title>dance-play-play-rhythm-exercise-fun-music</title><path class="cls-1" d="M23.31,19.91a4.955,4.955,0,1,1-4.954-5.091A5.024,5.024,0,0,1,23.31,19.91Z" id="id_101" style="fill: rgb(255, 255, 255);"></path><path class="cls-1" d="M34.492,16.019c.489-.687.868-2.221-.06-2.8s-2.358.121-2.847.807L20.926,24.99H14.144a3.493,3.493,0,0,0-2.864,1.117l-7.72,11.9a2.288,2.288,0,0,0,0,2.974,1.9,1.9,0,0,0,2.892,0l5.792-8.923v9.916L8.9,58.447a1.938,1.938,0,0,0,1.494,2.283l.312.056a1.916,1.916,0,0,0,2.157-1.65L16.1,43.955h4.823l2.907,15.927c.263,1.08,1.97,1.292,2.907,1h0c.937-.294,1.2-1.962.939-3.042L24.785,41.973V27.1Z" id="id_102" style="fill: rgb(255, 255, 255);"></path><path class="cls-2" d="M49.907,19.91a4.955,4.955,0,1,1-4.953-5.091A5.023,5.023,0,0,1,49.907,19.91Z" id="id_103" style="fill: rgb(255, 255, 255);"></path><path class="cls-2" d="M60.491,16.018c.491-.686.869-2.22-.058-2.8s-2.359.121-2.849.808L46.925,24.989H40.144a3.5,3.5,0,0,0-2.864,1.117l-7.721,11.9a2.293,2.293,0,0,0,0,2.975,1.9,1.9,0,0,0,2.894,0l5.792-8.924v9.916L34.9,58.446a1.94,1.94,0,0,0,1.494,2.284l.311.056a1.917,1.917,0,0,0,2.157-1.65L42.1,43.954h4.823l2.907,15.928c.265,1.079,1.97,1.292,2.908,1h0c.936-.295,1.2-1.963.939-3.043L50.785,41.972V27.1Z" id="id_104" style="fill: rgb(255, 255, 255);"></path><ellipse class="cls-3" cx="6" cy="13" rx="3" ry="2" id="id_105" style="fill: rgb(180, 207, 212);"></ellipse><rect class="cls-3" x="9" y="3" width="8" height="4" id="id_106" style="fill: rgb(179, 204, 209);"></rect><path d="M12.4,19.91a6.135,6.135,0,0,0,1.549,4.083,4.4,4.4,0,0,0-3.389,1.417,1,1,0,0,0-.122.153L2.746,37.425a3.269,3.269,0,0,0,.1,4.253,3.049,3.049,0,0,0,2.176.973h0a2.977,2.977,0,0,0,2.149-.975,1,1,0,0,0,.121-.152l3.953-6.09v6.438L7.913,58.282a2.942,2.942,0,0,0,2.3,3.433l.317.056a2.765,2.765,0,0,0,2.079-.479,3.044,3.044,0,0,0,1.227-1.947l3.072-14.39h3.18l2.769,15.164a2.24,2.24,0,0,0,1.129,1.43,3.872,3.872,0,0,0,1.876.45,3.992,3.992,0,0,0,1.175-.166c1.6-.5,1.962-2.781,1.622-4.176L25.785,41.882V27.474l9.459-10.8c.022-.026.043-.052.062-.079a3.875,3.875,0,0,0,.64-2.764,2.176,2.176,0,0,0-.982-1.465c-1.414-.888-3.36-.011-4.142,1.005L24.3,20.083c0-.058.008-.115.008-.173a5.955,5.955,0,1,0-11.907,0Zm19.9-5.188a1.075,1.075,0,0,0,.1-.117c.255-.357,1.142-.769,1.5-.541.019.012.059.037.083.161A1.886,1.886,0,0,1,33.7,15.4L24.033,26.438a1,1,0,0,0-.248.66V41.973a.977.977,0,0,0,.016.179l2.906,15.921a2.317,2.317,0,0,1-.266,1.852,2.161,2.161,0,0,1-1.468-.118,1.051,1.051,0,0,1-.156-.1L21.91,43.775a1,1,0,0,0-.984-.82H16.1a1,1,0,0,0-.978.791L11.875,58.97a1.058,1.058,0,0,1-.417.69.783.783,0,0,1-.578.142l-.317-.057a.935.935,0,0,1-.684-1.1l3.345-16.474a1.025,1.025,0,0,0,.02-.2V32.057a1,1,0,0,0-1.839-.545L5.672,40.345a.971.971,0,0,1-.652.306h0a1.074,1.074,0,0,1-.743-.369c-.61-.627-.026-1.522.122-1.732l7.665-11.812a2.5,2.5,0,0,1,2.081-.748h4.015c.066,0,.131.01.2.01s.132-.008.2-.01h2.372a1,1,0,0,0,.717-.3Zm-13.946,1.1a4.09,4.09,0,0,1,.1,8.171h-.2a4.09,4.09,0,0,1,.1-8.171Z" id="id_107"></path><path d="M36.563,25.409a1.064,1.064,0,0,0-.122.153l-7.7,11.863a3.27,3.27,0,0,0,.1,4.252,2.943,2.943,0,0,0,4.327,0,.942.942,0,0,0,.122-.153l3.953-6.09v6.438l-3.332,16.41a2.942,2.942,0,0,0,2.3,3.432l.316.057a2.772,2.772,0,0,0,2.08-.479,3.039,3.039,0,0,0,1.226-1.947l3.072-14.391h3.18l2.77,15.166a2.24,2.24,0,0,0,1.13,1.429A3.866,3.866,0,0,0,51.865,62a4.022,4.022,0,0,0,1.175-.165c1.6-.5,1.962-2.781,1.623-4.176L51.785,41.882V27.473l9.458-10.8c.022-.025.043-.051.062-.077a3.869,3.869,0,0,0,.641-2.762,2.176,2.176,0,0,0-.982-1.468c-1.413-.889-3.36-.012-4.142,1L50.886,19.48A5.947,5.947,0,0,0,39,19.91a6.136,6.136,0,0,0,1.546,4.079h-.4A4.484,4.484,0,0,0,36.563,25.409Zm8.391-9.59a4.028,4.028,0,0,1,3.953,4.091,4.148,4.148,0,0,1-.747,2.375l-.94.967a3.842,3.842,0,0,1-2.164.737h-.2a4.09,4.09,0,0,1,.1-8.17Zm-.208,10.17c.07,0,.138.011.208.011s.138-.008.207-.011h1.764a1,1,0,0,0,.718-.3l.912-.939A6.09,6.09,0,0,0,49.7,23.567l8.6-8.846a.906.906,0,0,0,.1-.117c.255-.355,1.141-.768,1.5-.541.019.012.059.037.083.162A1.886,1.886,0,0,1,59.7,15.4L50.033,26.438a1,1,0,0,0-.248.659V41.972a1,1,0,0,0,.016.18l2.906,15.92a2.316,2.316,0,0,1-.268,1.853,2.163,2.163,0,0,1-1.466-.118,1.058,1.058,0,0,1-.157-.105L47.909,43.774a1,1,0,0,0-.984-.82H42.1a1,1,0,0,0-.978.791L37.875,58.97a1.06,1.06,0,0,1-.417.689.779.779,0,0,1-.578.142l-.316-.056a.935.935,0,0,1-.685-1.1l3.346-16.475a1.025,1.025,0,0,0,.02-.2V32.056a1,1,0,0,0-1.839-.544l-5.732,8.832a.906.906,0,0,1-1.4-.062c-.61-.627-.026-1.523.122-1.732l7.665-11.813a2.5,2.5,0,0,1,2.081-.748Z" id="id_108"></path><path d="M6,16c2.243,0,4-1.318,4-3V8h7a1,1,0,0,0,1-1V3a1,1,0,0,0-1-1H9A1,1,0,0,0,8,3V6H8v4.4A5.082,5.082,0,0,0,6,10c-2.243,0-4,1.318-4,3S3.757,16,6,16ZM10,4h6V6H10ZM6,12c1.219,0,2,.59,2,1v0H8c0,.408-.779,1-2,1s-2-.592-2-1S4.779,12,6,12Z" id="id_109"></path></svg>