<svg version="1.1" id="Layer_1" xmlns="http://www.w3.org/2000/svg" xmlns:xlink="http://www.w3.org/1999/xlink" x="0px" y="0px" viewBox="0 0 224.1507 222.8802" enable-background="new 0 0 224.1507 222.8802" xml:space="preserve">
<g>
<path d="M130.5259,169.4673c-0.1715,0-0.3427-0.0139-0.514-0.0275l2.5815,23.9175h-3.2214l3.1593,19.835h35.1217
		c1.8438,0,3.3438,1.5,3.3438,3.3442c0,1.8438-1.5,3.3438-3.3438,3.3438H91.029c-1.8447,0-3.3447-1.5-3.3447-3.3438
		c0-1.8442,1.5-3.3442,3.3447-3.3442h7.6831l-3.1592-19.835h-5.1851c-6.9033,0-12.5,5.5962-12.5,12.5
		c0,4.8636,2.7838,9.0684,6.8395,11.1346c0.2352,3.2855,2.9774,5.8883,6.3217,5.8883h76.624c3.498,0,6.3438-2.8457,6.3438-6.3438
		s-2.8457-6.3442-6.3438-6.3442h-9.4309c0.6644-1.7946,0.9309-3.7319,0.7209-5.6763l-4.1116-38.0934l-22.3651,2.9168
		C131.8248,169.4243,131.1714,169.4673,130.5259,169.4673z" id="id_101" style="fill: rgb(255, 255, 255);"></path>
<path d="M148.5914,111.602c-0.8086,0.1982-1.6357,0.2979-2.4619,0.2979c-1.3467,0-2.6621-0.2588-3.9092-0.7705l-8.6375-3.5441
		l-14.226,40.8528c-0.2017,0.5309-0.3367,1.0702-0.4175,1.6099c-0.7634,1.9153-1.0684,4.0439-0.7826,6.2338
		c0.0072,0.0556,0.0219,0.1082,0.0298,0.1635c0.9716,6.7574,7.1869,11.5059,13.9819,10.6138l49.7559-6.4893l0.9681,3.8329
		l19.6392-3.6863l-7.4626-29.7698c-0.4775-1.9067,0.6846-3.8467,2.5918-4.3242c0.2891-0.0728,0.5801-0.1074,0.8662-0.1074
		c1.5947,0,3.0518,1.0815,3.457,2.6978l19.0596,76.0327c0.4775,1.9067-0.6846,3.8467-2.5908,4.3242h-0.001
		c-1.9053,0.4795-3.8457-0.6855-4.3232-2.5908l-2.3496-9.3727l-19.5718,3.6737l3.0697,12.1533
		c1.4307,5.666,6.5205,9.4414,12.1104,9.4414c1.0127,0,2.043-0.124,3.0703-0.3838c5.0062-1.2643,8.5344-5.3857,9.2887-10.1833
		c0.9412-0.3275,1.7638-0.8566,2.4387-1.5232c1.5988-1.5792,2.3535-3.9346,1.7688-6.2678l-19.0596-76.0332
		c-0.8809-3.5103-4.4482-5.6514-7.9648-4.771c-3.5098,0.8804-5.6504,4.4521-4.7705,7.9634l0.075,0.2993l0.5923,2.3626
		c-1.0176-0.1229-2.0623-0.1326-3.1205,0.0057l-43.0795,5.6191l-0.2262-2.2896l31.0634-4.0518l15.0317-32.9825
		c-0.5203,0.2252-1.0598,0.4203-1.6283,0.5602L148.5914,111.602z" id="id_102" style="fill: rgb(255, 255, 255);"></path>
<polygon points="210.3173,191.7751 203.9933,166.5473 184.3649,170.2317 190.7348,195.4509 	" id="id_103" style="fill: rgb(255, 255, 255);"></polygon>
<path d="M146.9302,90.7954l24.3524-5.9929l0.6843,2.2004l-25.2155,6.2055l-51.915-21.3027
		c-4.0889-1.6748-8.7607,0.2764-10.4385,4.3643c-1.6768,4.0879,0.2773,8.7607,4.3643,10.4385l54.3301,22.293
		c0.9697,0.3975,2.002,0.5986,3.0371,0.5986c0.6406,0,1.2822-0.0771,1.9121-0.2314l42.2754-10.4033
		c4.2351-1.0421,6.8378-5.2792,5.8883-9.5158c-0.0123-0.055-0.0183-0.1099-0.0319-0.1649
		c-0.1989-0.8068-0.5135-1.5543-0.9215-2.2296c-0.8542-1.5386-2.2327-2.797-4.0071-3.4713L155.1297,69.86
		c-1.786-0.6787-3.6648-0.6474-5.3334-0.053c-1.309,0.2823-2.5659,0.8917-3.6365,1.8472l-14.443,12.8988L146.9302,90.7954z" id="id_104" style="fill: rgb(255, 255, 255);"></path>
<path d="M196.5637,62.8511l3.759,1.3572c1.6096-2.4142,2.7637-5.157,3.3428-8.1081l-3.8287-0.5533
		C199.288,58.1862,198.1767,60.6803,196.5637,62.8511z" id="id_105" style="fill: rgb(255, 255, 255);"></path>
<path d="M200.2419,51.8163c-0.0018,0.4876-0.0305,0.9723-0.0701,1.4552l3.8196,0.552c0.0603-0.6569,0.0979-1.3204,0.1003-1.9925
		c0.0085-2.2241-0.3108-4.3719-0.9041-6.4033l-3.9336,0.3472C199.9091,47.7139,200.2497,49.737,200.2419,51.8163z" id="id_106" style="fill: rgb(255, 255, 255);"></path>
<path d="M182.8532,55.347c-0.0596,0.2845-0.2594,1.1759-0.6146,2.3321l12.0486,4.35c1.6154-1.9879,2.7279-4.3232,3.2677-6.8121
		l-14.4143-2.083L182.8532,55.347z" id="id_107" style="fill: rgb(255, 255, 255);"></path>
<path d="M177.0544,65.8631c-1.2314,0.6621-2.5928,0.7334-3.9297,0.2056c-2.9136-1.1496-6.3413-0.5507-8.738,0.1673
		c4.1086,4.873,10.2461,7.9819,17.1189,8.0083c6.9846,0.0269,13.2372-3.1313,17.3831-8.1087l-17.415-6.2875
		C180.5388,62.1877,179.1037,64.7632,177.0544,65.8631z" id="id_108" style="fill: rgb(255, 255, 255);"></path>
<path d="M183.5182,50.2264l-0.0813,0.6266l14.45,2.0882c0.0275-0.3767,0.0529-0.7539,0.0542-1.1338
		c0.0085-2.014-0.3635-3.9644-1.0627-5.8229l-9.8455,0.8688C185.1999,47.015,183.7546,48.4022,183.5182,50.2264z" id="id_109" style="fill: rgb(255, 255, 255);"></path>
<path d="M204.83,37.6001c-3.6526-10.3655-13.531-17.5837-24.9592-17.5837c-0.4277,0-0.8564,0.0103-1.2871,0.0308
		c-12.457,0.5884-22.8652,9.9648-24.749,22.2954c-1.2666,8.2969,1.4521,16.6929,7.2891,22.6201
		c2.0615-0.8843,7.8838-2.9888,12.8447-1.0337c0.7158,0.2822,1.3516,0.2544,1.9971-0.0913
		c2.5234-1.3535,4.1924-6.8682,4.6221-8.8789l0.6494-5.0283c0.377-2.9033,2.6777-5.1108,5.5928-5.3682l13.4949-1.191
		c2.7957-0.1478,5.6653-0.4092,8.0587-0.7489c3.3522-0.4758,5.7682-1.1047,5.724-1.7889c-0.0972-1.5071-2.8386-2.6467-6.7991-3.0706
		C206.5266,37.6794,205.696,37.6253,204.83,37.6001z M193.8874,31.2154c1.2046-0.7645,3.1207,0.0965,4.2798,1.9229
		c1.1589,1.8264,1.1218,3.9267-0.0828,4.6912s-3.1207-0.0965-4.2798-1.9229C192.6457,34.0801,192.6827,31.9798,193.8874,31.2154z" id="id_110" style="fill: rgb(255, 255, 255);"></path>
<path d="M69.3701,72.8136l11.543-13.4878L11.6008,0.0074c0,0-2.7727-0.4258-7.5823,5.1942
		c-4.8097,5.6199-3.9607,8.2936-3.9607,8.2936L69.3701,72.8136z" id="id_111" style="fill: rgb(255, 255, 255);"></path>
<path d="M86.4152,70.5253l-3.5725-3.0574l-1.0573-4.2l-8.386,9.7988l4.3129,0.3958l4.073,3.4856
		c0.1228-0.5212,0.2751-1.0403,0.4847-1.5511C83.1225,73.3202,84.593,71.6423,86.4152,70.5253z" id="id_112" style="fill: rgb(255, 255, 255);"></path>
<path d="M89.6713,89.5676l19.6077,25.0548c1.3633,1.7422,3.3867,2.8418,5.5898,3.0381c0.2373,0.0215,0.4736,0.0317,0.71,0.0317
		c1.958,0,3.8564-0.7188,5.3291-2.0332l10.1843-9.0956L89.6713,89.5676z" id="id_113" style="fill: rgb(250, 250, 250);"></path>
<polygon points="104.7881,213.1922 126.4553,213.1922 123.2961,193.3573 101.6288,193.3573 	" id="id_114" style="fill: rgb(237, 252, 255);"></polygon>
</g>
</svg>